<svg xmlns="http://www.w3.org/2000/svg" width="36" height="36" viewBox="0 0 80 80">
    <defs>
        <linearGradient x1="0%" y1="100%" x2="0%" y2="0%" id="mx-gradient-4d72f3-1-3334b9-1-s-0"><stop offset="0%" style="stop-color: rgb(51, 52, 185); stop-opacity: 1;"/><stop offset="100%" style="stop-color: rgb(77, 114, 243); stop-opacity: 1;"/></linearGradient>
    </defs>
    <g><path d="M 0 0 L 80 0 L 80 80 L 0 80 Z" fill="url(#mx-gradient-4d72f3-1-3334b9-1-s-0)" stroke="none" pointer-events="all"/><path d="M 53.77 56.97 C 49.95 60.06 41.95 61.69 34.29 61.69 C 26.63 61.69 18.63 60.05 14.81 56.97 L 14.81 63.18 L 14.81 63.18 C 14.81 66.28 22.81 69.73 34.29 69.73 C 45.76 69.73 53.76 66.28 53.77 63.19 Z M 53.77 45.17 L 56.06 45.16 L 56.06 45.17 C 56.06 46.55 55.36 47.84 54.02 49.02 C 55.65 50.45 56.06 51.86 56.06 52.87 C 56.06 52.87 56.05 52.88 56.05 52.89 L 56.05 63.18 L 56.06 63.18 C 56.06 68.91 44.84 72 34.29 72 C 23.77 72 12.58 68.92 12.53 63.22 C 12.53 63.22 12.53 63.21 12.53 63.2 L 12.53 52.86 C 12.53 52.86 12.53 52.86 12.53 52.85 C 12.53 51.85 12.94 50.45 14.57 49.01 C 12.95 47.58 12.54 46.19 12.53 45.19 L 12.53 45.19 C 12.53 45.19 12.53 45.19 12.53 45.18 L 12.53 34.84 C 12.53 34.84 12.53 34.83 12.53 34.83 C 12.53 33.83 12.94 32.42 14.57 30.99 C 12.95 29.56 12.54 28.16 12.53 27.17 L 12.53 27.17 C 12.53 27.16 12.53 27.16 12.53 27.16 L 12.53 16.81 C 12.53 16.81 12.53 16.81 12.53 16.8 C 12.55 11.09 23.75 8 34.29 8 C 40.25 8 45.97 8.95 49.99 10.6 L 49.11 12.69 C 45.36 11.15 39.96 10.27 34.29 10.27 C 22.81 10.27 14.81 13.72 14.81 16.82 C 14.81 19.92 22.81 23.37 34.29 23.37 C 34.6 23.37 34.9 23.37 35.21 23.36 L 35.31 25.63 C 34.97 25.64 34.63 25.64 34.29 25.64 C 26.63 25.64 18.63 24.01 14.81 20.92 L 14.81 27.13 L 14.81 27.13 L 14.81 27.16 C 14.83 28.35 16.05 29.39 17.07 30.04 C 20.14 32 25.65 33.34 31.79 33.62 L 31.69 35.89 C 25.47 35.6 20.02 34.31 16.51 32.33 C 15.65 32.98 14.81 33.85 14.81 34.84 C 14.81 37.94 22.81 41.4 34.29 41.4 C 35.42 41.4 36.54 41.36 37.62 41.28 L 37.77 43.55 C 36.64 43.62 35.47 43.66 34.29 43.66 C 26.63 43.66 18.63 42.03 14.81 38.95 L 14.81 45.16 L 14.81 45.16 C 14.83 46.37 16.05 47.41 17.07 48.07 C 20.58 50.31 27.18 51.71 34.29 51.71 L 34.79 51.71 L 34.79 53.98 L 34.29 53.98 C 27.07 53.98 20.51 52.64 16.49 50.37 C 15.63 51.01 14.81 51.88 14.81 52.87 C 14.81 55.97 22.81 59.42 34.29 59.42 C 45.76 59.42 53.76 55.97 53.77 52.87 L 53.77 52.86 L 53.77 52.86 C 53.77 51.88 52.94 51.01 52.08 50.36 C 51.52 50.68 50.93 50.98 50.25 51.26 L 49.37 49.17 C 50.2 48.83 50.92 48.46 51.51 48.07 C 52.54 47.4 53.77 46.35 53.77 45.17 Z M 63.56 28.59 L 57.15 28.59 C 56.78 28.59 56.42 28.4 56.21 28.09 C 56 27.78 55.95 27.39 56.09 27.04 L 59.99 17.3 L 45.23 17.3 L 38.38 30.9 L 45.67 30.9 C 46.04 30.9 46.38 31.08 46.59 31.37 C 46.81 31.66 46.87 32.04 46.76 32.38 L 40.25 52.67 Z M 67.07 28.24 L 38.5 57.76 C 38.27 57.99 37.97 58.11 37.67 58.11 C 37.47 58.11 37.27 58.06 37.09 57.95 C 36.63 57.68 36.42 57.13 36.58 56.63 L 44.11 33.17 L 36.53 33.17 C 36.13 33.17 35.77 32.97 35.56 32.63 C 35.35 32.3 35.33 31.88 35.51 31.53 L 43.51 15.66 C 43.7 15.28 44.1 15.03 44.53 15.03 L 61.67 15.03 C 62.05 15.03 62.41 15.22 62.62 15.53 C 62.83 15.84 62.87 16.24 62.73 16.59 L 58.84 26.32 L 66.24 26.32 C 66.7 26.32 67.11 26.6 67.29 27.01 C 67.47 27.43 67.38 27.92 67.07 28.24 Z M 16.48 63.63 C 18.1 64.54 20.13 65.31 22.54 65.91 L 23.09 63.71 C 20.92 63.17 19.03 62.46 17.61 61.66 Z M 22.54 47.77 L 23.09 45.57 C 20.92 45.03 19.03 44.32 17.61 43.52 L 16.48 45.49 C 18.1 46.4 20.13 47.17 22.54 47.77 Z M 16.48 27.36 L 17.61 25.38 C 19.02 26.18 20.92 26.89 23.09 27.44 L 22.54 29.63 C 20.13 29.03 18.09 28.27 16.48 27.36 Z" fill="#ffffff" stroke="none" pointer-events="all"/></g>
</svg>
