<svg xmlns="http://www.w3.org/2000/svg" width="36" height="36" viewBox="0 0 80 80">
    <defs>
        <linearGradient x1="0%" y1="100%" x2="0%" y2="0%" id="mx-gradient-f78e04-1-d05c17-1-s-0"><stop offset="0%" style="stop-color: rgb(208, 92, 23); stop-opacity: 1;"/><stop offset="100%" style="stop-color: rgb(247, 142, 4); stop-opacity: 1;"/></linearGradient>
    </defs>
    <g><path d="M 0 0 L 80 0 L 80 80 L 0 80 Z" fill="url(#mx-gradient-f78e04-1-d05c17-1-s-0)" stroke="none" pointer-events="all"/><path d="M 26.32 69.71 L 12.13 69.71 L 27.83 36.91 L 34.94 51.55 Z M 28.85 33.77 C 28.66 33.38 28.26 33.13 27.82 33.13 L 27.82 33.13 C 27.38 33.13 26.97 33.38 26.79 33.78 L 9.28 70.36 C 9.11 70.72 9.14 71.13 9.35 71.47 C 9.56 71.8 9.92 72 10.32 72 L 27.05 72 C 27.49 72 27.89 71.75 28.08 71.35 L 37.24 52.03 C 37.39 51.72 37.39 51.36 37.24 51.05 Z M 68.6 69.71 L 54.5 69.71 L 31.88 22.37 C 31.69 21.97 31.28 21.71 30.84 21.71 L 21.62 21.71 L 21.63 10.29 L 39.71 10.29 L 62.22 57.63 C 62.41 58.03 62.82 58.29 63.26 58.29 L 68.6 58.29 Z M 69.74 56 L 63.98 56 L 41.47 8.65 C 41.28 8.25 40.88 8 40.43 8 L 20.48 8 C 19.85 8 19.34 8.51 19.34 9.14 L 19.33 22.86 C 19.33 23.16 19.44 23.45 19.66 23.67 C 19.88 23.88 20.17 24 20.47 24 L 30.12 24 L 52.74 71.35 C 52.93 71.75 53.33 72 53.77 72 L 69.74 72 C 70.37 72 70.89 71.49 70.89 70.86 L 70.89 57.14 C 70.89 56.51 70.37 56 69.74 56 Z" fill="#ffffff" stroke="none" pointer-events="all"/></g>
</svg>
